<?xml version="1.0" encoding="utf-8"?>
<!-- Generator: Adobe Illustrator 19.2.1, SVG Export Plug-In . SVG Version: 6.00 Build 0)  -->
<svg version="1.1" id="Layer_1" xmlns="http://www.w3.org/2000/svg" xmlns:xlink="http://www.w3.org/1999/xlink" x="0px" y="0px"
	 viewBox="0 0 1024 768" style="enable-background:new 0 0 1024 768;" xml:space="preserve">
<style type="text/css">
	.st0{fill:#F2F2F2;stroke:#CCCCCC;stroke-width:6;stroke-miterlimit:10;}
	.st1{fill:#FFFFFF;stroke:#E6E6E6;stroke-width:11;stroke-miterlimit:10;}
	.st2{fill:#FF7320;stroke:#666666;stroke-width:18;stroke-miterlimit:10;}
	.st3{fill:#FFFFFF;stroke:#E6E6E6;stroke-width:4;stroke-miterlimit:10;}
	.st4{fill:#FF7320;stroke:url(#SVGID_1_);stroke-width:4;stroke-miterlimit:10;}
	.st5{fill:#FF7320;stroke:url(#SVGID_2_);stroke-width:4;stroke-miterlimit:10;}
	.st6{fill:#FF7320;stroke:url(#SVGID_3_);stroke-width:4;stroke-miterlimit:10;}
	.st7{fill:#FF7320;stroke:url(#SVGID_4_);stroke-width:4;stroke-miterlimit:10;}
	.st8{fill:#FF7320;stroke:#F2F2F2;stroke-width:5;stroke-miterlimit:10;}
	.st9{fill:#F2F2F2;stroke:#F2F2F2;stroke-width:3;stroke-miterlimit:10;}
	.st10{fill:#FFFFFF;}
	.st11{font-family:'DolceVitaHeavy-Bold';}
	.st12{font-size:77px;}
</style>
<path class="st0" d="M1002.5,750.4H21.5c-6.6,0-12-5.4-12-12V18c0-6.6,5.4-12,12-12h980.9c6.6,0,12,5.4,12,12v720.4
	C1014.5,745,1009.1,750.4,1002.5,750.4z"/>
<path class="st1" d="M890,563.1H126.2c-32.2,0-58.5-26.3-58.5-58.5V299.9c0-32.2,26.3-58.5,58.5-58.5H890
	c32.2,0,58.5,26.3,58.5,58.5v204.7C948.5,536.8,922.2,563.1,890,563.1z"/>
<circle class="st2" cx="509" cy="397" r="227.9"/>
<path class="st3" d="M444.7,275.1l202.8,117.1c6.1,3.5,6.1,12.3,0,15.8L444.7,525.1c-6.1,3.5-13.7-0.9-13.7-7.9V283
	C431.1,276,438.6,271.6,444.7,275.1z"/>
<g>
	<radialGradient id="SVGID_1_" cx="878.327" cy="402.2572" r="42.5198" gradientUnits="userSpaceOnUse">
		<stop  offset="0" style="stop-color:#FFFFFF"/>
		<stop  offset="8.510864e-02" style="stop-color:#FFEDD8"/>
		<stop  offset="0.2082" style="stop-color:#FFD5A7"/>
		<stop  offset="0.3345" style="stop-color:#FFC17D"/>
		<stop  offset="0.462" style="stop-color:#FFB05B"/>
		<stop  offset="0.591" style="stop-color:#FFA340"/>
		<stop  offset="0.7222" style="stop-color:#FF9A2D"/>
		<stop  offset="0.8568" style="stop-color:#FF9522"/>
		<stop  offset="1" style="stop-color:#FF931E"/>
	</radialGradient>
	<path class="st4" d="M853.8,360.8l58.2,33.6c6.1,3.5,6.1,12.3,0,15.8l-58.2,33.6c-6.1,3.5-13.7-0.9-13.7-7.9v-67.2
		C840.1,361.6,847.7,357.3,853.8,360.8z"/>
	<radialGradient id="SVGID_2_" cx="820.563" cy="402.2572" r="42.5198" gradientUnits="userSpaceOnUse">
		<stop  offset="0" style="stop-color:#FFFFFF"/>
		<stop  offset="8.510864e-02" style="stop-color:#FFEDD8"/>
		<stop  offset="0.2082" style="stop-color:#FFD5A7"/>
		<stop  offset="0.3345" style="stop-color:#FFC17D"/>
		<stop  offset="0.462" style="stop-color:#FFB05B"/>
		<stop  offset="0.591" style="stop-color:#FFA340"/>
		<stop  offset="0.7222" style="stop-color:#FF9A2D"/>
		<stop  offset="0.8568" style="stop-color:#FF9522"/>
		<stop  offset="1" style="stop-color:#FF931E"/>
	</radialGradient>
	<path class="st5" d="M796,360.8l58.2,33.6c6.1,3.5,6.1,12.3,0,15.8L796,443.7c-6.1,3.5-13.7-0.9-13.7-7.9v-67.2
		C782.4,361.6,789.9,357.3,796,360.8z"/>
</g>
<g>
	
		<radialGradient id="SVGID_3_" cx="245.1242" cy="376.2572" r="42.5198" gradientTransform="matrix(-1 0 0 -1 388.1198 778.5144)" gradientUnits="userSpaceOnUse">
		<stop  offset="0" style="stop-color:#FFFFFF"/>
		<stop  offset="8.510864e-02" style="stop-color:#FFEDD8"/>
		<stop  offset="0.2082" style="stop-color:#FFD5A7"/>
		<stop  offset="0.3345" style="stop-color:#FFC17D"/>
		<stop  offset="0.462" style="stop-color:#FFB05B"/>
		<stop  offset="0.591" style="stop-color:#FFA340"/>
		<stop  offset="0.7222" style="stop-color:#FF9A2D"/>
		<stop  offset="0.8568" style="stop-color:#FF9522"/>
		<stop  offset="1" style="stop-color:#FF931E"/>
	</radialGradient>
	<path class="st6" d="M167.5,443.7l-58.2-33.6c-6.1-3.5-6.1-12.3,0-15.8l58.2-33.6c6.1-3.5,13.7,0.9,13.7,7.9v67.2
		C181.2,442.9,173.6,447.2,167.5,443.7z"/>
	
		<radialGradient id="SVGID_4_" cx="187.3602" cy="376.2572" r="42.5198" gradientTransform="matrix(-1 0 0 -1 388.1198 778.5144)" gradientUnits="userSpaceOnUse">
		<stop  offset="0" style="stop-color:#FFFFFF"/>
		<stop  offset="8.510864e-02" style="stop-color:#FFEDD8"/>
		<stop  offset="0.2082" style="stop-color:#FFD5A7"/>
		<stop  offset="0.3345" style="stop-color:#FFC17D"/>
		<stop  offset="0.462" style="stop-color:#FFB05B"/>
		<stop  offset="0.591" style="stop-color:#FFA340"/>
		<stop  offset="0.7222" style="stop-color:#FF9A2D"/>
		<stop  offset="0.8568" style="stop-color:#FF9522"/>
		<stop  offset="1" style="stop-color:#FF931E"/>
	</radialGradient>
	<path class="st7" d="M225.3,443.7l-58.2-33.6c-6.1-3.5-6.1-12.3,0-15.8l58.2-33.6c6.1-3.5,13.7,0.9,13.7,7.9v67.2
		C239,442.9,231.4,447.2,225.3,443.7z"/>
</g>
<g>
	<path class="st8" d="M963.7,718H77.4c-9.8,0-17.9-8.1-17.9-17.9v0c0-9.8,8.1-17.9,17.9-17.9h886.3c9.8,0,17.9,8.1,17.9,17.9v0
		C981.6,710,973.6,718,963.7,718z"/>
	<g>
		<path class="st8" d="M151.5,735.6L151.5,735.6c-19.5,0-35.5-16-35.5-35.5v0c0-19.5,16-35.5,35.5-35.5h0c19.5,0,35.5,16,35.5,35.5
			v0C187,719.6,171.1,735.6,151.5,735.6z"/>
	</g>
	<circle class="st9" cx="151.5" cy="700.1" r="18.5"/>
</g>
<path class="st8" d="M935.6,140.6H85.6c-30.1,0-54.7-24.6-54.7-54.7v0c0-30.1,24.6-54.7,54.7-54.7h850.1c30.1,0,54.7,24.6,54.7,54.7
	v0C990.4,116,965.8,140.6,935.6,140.6z"/>
<text transform="matrix(1 0 0 1 223.9588 115.2139)" class="st10 st11 st12">Scrolly Stream</text>
</svg>
